<svg xmlns="http://www.w3.org/2000/svg" xmlns:xlink="http://www.w3.org/1999/xlink" width="500" zoomAndPan="magnify" viewBox="0 0 375 374.999991" height="500" preserveAspectRatio="xMidYMid meet" version="1.0"><defs><g/><clipPath id="d1bf0c9bab"><path d="M 35 125.546875 L 160 125.546875 L 160 251 L 35 251 Z M 35 125.546875 " clip-rule="nonzero"/></clipPath></defs><rect x="-37.5" width="450" fill="#ffffff" y="-37.499999" height="449.999989" fill-opacity="1"/><rect x="-37.5" width="450" fill="#ffffff" y="-37.499999" height="449.999989" fill-opacity="1"/><g clip-path="url(#d1bf0c9bab)"><path fill="#d8e3ff" d="M 159.550781 187.898438 C 159.550781 189.941406 159.453125 191.980469 159.253906 194.011719 C 159.054688 196.042969 158.753906 198.0625 158.355469 200.0625 C 157.957031 202.066406 157.464844 204.046875 156.871094 206 C 156.28125 207.953125 155.59375 209.875 154.8125 211.761719 C 154.035156 213.648438 153.164062 215.492188 152.203125 217.292969 C 151.242188 219.09375 150.195312 220.84375 149.0625 222.542969 C 147.929688 224.238281 146.714844 225.878906 145.421875 227.457031 C 144.128906 229.035156 142.761719 230.546875 141.320312 231.992188 C 139.878906 233.433594 138.371094 234.804688 136.792969 236.101562 C 135.21875 237.394531 133.582031 238.609375 131.886719 239.746094 C 130.191406 240.878906 128.445312 241.929688 126.648438 242.890625 C 124.847656 243.855469 123.007812 244.726562 121.125 245.507812 C 119.242188 246.289062 117.324219 246.976562 115.371094 247.570312 C 113.421875 248.160156 111.445312 248.65625 109.445312 249.054688 C 107.449219 249.453125 105.433594 249.753906 103.402344 249.953125 C 101.375 250.152344 99.339844 250.253906 97.300781 250.253906 C 95.265625 250.253906 93.230469 250.152344 91.199219 249.953125 C 89.171875 249.753906 87.15625 249.453125 85.160156 249.054688 C 83.160156 248.65625 81.183594 248.160156 79.234375 247.570312 C 77.28125 246.976562 75.363281 246.289062 73.480469 245.507812 C 71.597656 244.726562 69.757812 243.855469 67.957031 242.890625 C 66.160156 241.929688 64.414062 240.878906 62.71875 239.746094 C 61.023438 238.609375 59.386719 237.394531 57.8125 236.101562 C 56.234375 234.804688 54.726562 233.433594 53.285156 231.992188 C 51.84375 230.546875 50.476562 229.035156 49.183594 227.457031 C 47.890625 225.878906 46.675781 224.238281 45.542969 222.542969 C 44.410156 220.84375 43.363281 219.09375 42.402344 217.292969 C 41.441406 215.492188 40.570312 213.648438 39.792969 211.761719 C 39.011719 209.875 38.324219 207.953125 37.734375 206 C 37.140625 204.046875 36.648438 202.066406 36.25 200.0625 C 35.851562 198.0625 35.550781 196.042969 35.351562 194.011719 C 35.152344 191.980469 35.054688 189.941406 35.054688 187.898438 C 35.054688 185.859375 35.152344 183.820312 35.351562 181.789062 C 35.550781 179.753906 35.851562 177.738281 36.25 175.734375 C 36.648438 173.730469 37.140625 171.753906 37.734375 169.800781 C 38.324219 167.84375 39.011719 165.925781 39.792969 164.039062 C 40.570312 162.152344 41.441406 160.308594 42.402344 158.507812 C 43.363281 156.703125 44.410156 154.957031 45.542969 153.257812 C 46.675781 151.558594 47.890625 149.921875 49.183594 148.34375 C 50.476562 146.765625 51.84375 145.253906 53.285156 143.808594 C 54.726562 142.363281 56.234375 140.996094 57.8125 139.699219 C 59.386719 138.402344 61.023438 137.1875 62.71875 136.054688 C 64.414062 134.917969 66.160156 133.871094 67.957031 132.90625 C 69.757812 131.945312 71.597656 131.074219 73.480469 130.292969 C 75.363281 129.511719 77.28125 128.824219 79.234375 128.230469 C 81.183594 127.636719 83.160156 127.140625 85.160156 126.742188 C 87.15625 126.34375 89.171875 126.046875 91.199219 125.847656 C 93.230469 125.644531 95.265625 125.546875 97.300781 125.546875 C 99.339844 125.546875 101.375 125.644531 103.402344 125.847656 C 105.433594 126.046875 107.449219 126.34375 109.445312 126.742188 C 111.445312 127.140625 113.421875 127.636719 115.371094 128.230469 C 117.324219 128.824219 119.242188 129.511719 121.125 130.292969 C 123.007812 131.074219 124.847656 131.945312 126.648438 132.90625 C 128.445312 133.871094 130.191406 134.917969 131.886719 136.054688 C 133.582031 137.1875 135.21875 138.402344 136.792969 139.699219 C 138.371094 140.996094 139.878906 142.363281 141.320312 143.808594 C 142.761719 145.253906 144.128906 146.765625 145.421875 148.34375 C 146.714844 149.921875 147.929688 151.558594 149.0625 153.257812 C 150.195312 154.957031 151.242188 156.703125 152.203125 158.507812 C 153.164062 160.308594 154.035156 162.152344 154.8125 164.039062 C 155.59375 165.925781 156.28125 167.84375 156.871094 169.800781 C 157.464844 171.753906 157.957031 173.730469 158.355469 175.734375 C 158.753906 177.738281 159.054688 179.753906 159.253906 181.789062 C 159.453125 183.820312 159.550781 185.859375 159.550781 187.898438 Z M 159.550781 187.898438 " fill-opacity="1" fill-rule="nonzero"/></g><path fill="#504b8e" d="M 11.921875 146.117188 C 15.664062 146.441406 19.496094 147.375 22.992188 149.757812 C 23.816406 150.445312 24.738281 150.976562 25.496094 151.816406 C 26.253906 152.636719 27.089844 153.445312 27.730469 154.351562 C 28.335938 155.148438 28.921875 155.941406 29.492188 156.769531 C 38.824219 157.40625 48.140625 158.667969 57.367188 160.792969 C 63.792969 162.238281 70.140625 164.214844 76.425781 166.546875 C 81.949219 168.761719 87.441406 171.425781 92.566406 175.121094 C 77.011719 158.070312 60.273438 151.96875 52.332031 149.214844 C 35.050781 143.222656 19.609375 143.945312 8.4375 146.070312 C 9.585938 146.027344 10.757812 146.054688 11.921875 146.117188 Z M 11.921875 146.117188 " fill-opacity="1" fill-rule="nonzero"/><path fill="#504b8e" d="M 56.597656 166.257812 C 50.320312 164.71875 43.960938 163.652344 37.589844 162.734375 C 36.046875 162.503906 34.503906 162.273438 32.96875 162.105469 C 34.820312 165.101562 36.554688 168.269531 38.140625 171.53125 C 38.464844 172.191406 38.78125 172.875 39.101562 173.550781 C 47.425781 174.167969 55.742188 175.316406 64.003906 177.148438 L 68.726562 178.375 L 71.082031 179.007812 L 73.417969 179.765625 L 78.085938 181.300781 C 79.636719 181.894531 81.167969 182.519531 82.710938 183.164062 C 88.828125 185.738281 94.859375 188.96875 100.390625 193.429688 C 104.921875 197.039062 109.203125 201.484375 112.542969 206.972656 C 110.605469 202.359375 108.285156 197.613281 105.515625 192.878906 C 101.894531 187.785156 97.582031 183.675781 92.917969 180.410156 C 87.378906 176.59375 81.40625 173.761719 75.273438 171.617188 C 69.144531 169.5 62.914062 167.59375 56.597656 166.257812 Z M 56.597656 166.257812 " fill-opacity="1" fill-rule="nonzero"/><path fill="#504b8e" d="M 98.710938 197.195312 C 93.269531 193.40625 87.476562 190.394531 81.46875 188.195312 L 76.988281 186.484375 L 72.433594 185.054688 L 70.144531 184.351562 L 67.835938 183.773438 L 63.230469 182.613281 C 57.042969 181.21875 50.816406 180.058594 44.550781 179.28125 C 43.519531 179.125 42.488281 178.980469 41.449219 178.855469 C 42.179688 180.527344 42.902344 181.964844 43.8125 183.269531 C 46.035156 186.449219 48.871094 188.867188 52.058594 190.398438 C 53.648438 191.191406 55.300781 191.734375 57.039062 192.230469 L 62.421875 193.742188 L 83.921875 200.078125 L 94.632812 203.367188 C 98.367188 204.75 101.875 206.964844 105.015625 209.789062 C 111.089844 215.257812 115.820312 222.609375 119.664062 230.480469 C 118.25 223.847656 115.996094 217.605469 112.878906 212.273438 C 109.179688 205.867188 104.101562 201.0625 98.710938 197.195312 Z M 98.710938 197.195312 " fill-opacity="1" fill-rule="nonzero"/><g fill="#39b54a" fill-opacity="1"><g transform="translate(163.554301, 217.366567)"><g/></g></g><g fill="#39b54a" fill-opacity="1"><g transform="translate(178.319347, 217.366567)"><g><path d="M 10.078125 -25.109375 L 0.171875 -25.109375 L 0.171875 -30.9375 L 27.140625 -30.9375 L 27.140625 -25.109375 L 17.234375 -25.109375 L 17.234375 0 L 10.078125 0 Z M 10.078125 -25.109375 "/></g></g></g><g fill="#39b54a" fill-opacity="1"><g transform="translate(207.887455, 217.366567)"><g><path d="M 9.765625 -20.640625 C 10.585938 -21.785156 11.695312 -22.65625 13.09375 -23.25 C 14.5 -23.84375 16.117188 -24.140625 17.953125 -24.140625 L 17.953125 -17.765625 C 17.179688 -17.828125 16.664062 -17.859375 16.40625 -17.859375 C 14.425781 -17.859375 12.875 -17.304688 11.75 -16.203125 C 10.632812 -15.097656 10.078125 -13.441406 10.078125 -11.234375 L 10.078125 0 L 3.1875 0 L 3.1875 -23.78125 L 9.765625 -23.78125 Z M 9.765625 -20.640625 "/></g></g></g><g fill="#39b54a" fill-opacity="1"><g transform="translate(229.190918, 217.366567)"><g><path d="M 26.484375 -11.796875 C 26.484375 -11.710938 26.4375 -11.097656 26.34375 -9.953125 L 8.359375 -9.953125 C 8.679688 -8.472656 9.445312 -7.304688 10.65625 -6.453125 C 11.863281 -5.597656 13.363281 -5.171875 15.15625 -5.171875 C 16.394531 -5.171875 17.492188 -5.351562 18.453125 -5.71875 C 19.410156 -6.09375 20.300781 -6.675781 21.125 -7.46875 L 24.796875 -3.484375 C 22.554688 -0.921875 19.285156 0.359375 14.984375 0.359375 C 12.304688 0.359375 9.9375 -0.160156 7.875 -1.203125 C 5.8125 -2.253906 4.21875 -3.707031 3.09375 -5.5625 C 1.976562 -7.425781 1.421875 -9.535156 1.421875 -11.890625 C 1.421875 -14.210938 1.972656 -16.3125 3.078125 -18.1875 C 4.179688 -20.0625 5.695312 -21.519531 7.625 -22.5625 C 9.550781 -23.613281 11.707031 -24.140625 14.09375 -24.140625 C 16.425781 -24.140625 18.535156 -23.632812 20.421875 -22.625 C 22.304688 -21.625 23.785156 -20.1875 24.859375 -18.3125 C 25.941406 -16.445312 26.484375 -14.273438 26.484375 -11.796875 Z M 14.140625 -18.921875 C 12.578125 -18.921875 11.265625 -18.476562 10.203125 -17.59375 C 9.148438 -16.707031 8.503906 -15.5 8.265625 -13.96875 L 19.984375 -13.96875 C 19.742188 -15.46875 19.09375 -16.664062 18.03125 -17.5625 C 16.96875 -18.46875 15.671875 -18.921875 14.140625 -18.921875 Z M 14.140625 -18.921875 "/></g></g></g><g fill="#39b54a" fill-opacity="1"><g transform="translate(259.333581, 217.366567)"><g><path d="M 17.640625 -24.140625 C 20.585938 -24.140625 22.96875 -23.253906 24.78125 -21.484375 C 26.59375 -19.710938 27.5 -17.085938 27.5 -13.609375 L 27.5 0 L 20.59375 0 L 20.59375 -12.546875 C 20.59375 -14.429688 20.179688 -15.835938 19.359375 -16.765625 C 18.535156 -17.703125 17.34375 -18.171875 15.78125 -18.171875 C 14.039062 -18.171875 12.65625 -17.628906 11.625 -16.546875 C 10.59375 -15.472656 10.078125 -13.878906 10.078125 -11.765625 L 10.078125 0 L 3.1875 0 L 3.1875 -23.78125 L 9.765625 -23.78125 L 9.765625 -21 C 10.679688 -22 11.816406 -22.769531 13.171875 -23.3125 C 14.523438 -23.863281 16.015625 -24.140625 17.640625 -24.140625 Z M 17.640625 -24.140625 "/></g></g></g><g fill="#39b54a" fill-opacity="1"><g transform="translate(292.127991, 217.366567)"><g><path d="M 27.40625 -32.796875 L 27.40625 0 L 20.8125 0 L 20.8125 -2.734375 C 19.101562 -0.671875 16.628906 0.359375 13.390625 0.359375 C 11.148438 0.359375 9.125 -0.140625 7.3125 -1.140625 C 5.5 -2.148438 4.078125 -3.582031 3.046875 -5.4375 C 2.015625 -7.289062 1.5 -9.441406 1.5 -11.890625 C 1.5 -14.335938 2.015625 -16.488281 3.046875 -18.34375 C 4.078125 -20.195312 5.5 -21.625 7.3125 -22.625 C 9.125 -23.632812 11.148438 -24.140625 13.390625 -24.140625 C 16.429688 -24.140625 18.804688 -23.179688 20.515625 -21.265625 L 20.515625 -32.796875 Z M 14.59375 -5.296875 C 16.320312 -5.296875 17.757812 -5.894531 18.90625 -7.09375 C 20.0625 -8.289062 20.640625 -9.890625 20.640625 -11.890625 C 20.640625 -13.890625 20.0625 -15.488281 18.90625 -16.6875 C 17.757812 -17.882812 16.320312 -18.484375 14.59375 -18.484375 C 12.820312 -18.484375 11.359375 -17.882812 10.203125 -16.6875 C 9.054688 -15.488281 8.484375 -13.890625 8.484375 -11.890625 C 8.484375 -9.890625 9.054688 -8.289062 10.203125 -7.09375 C 11.359375 -5.894531 12.820312 -5.296875 14.59375 -5.296875 Z M 14.59375 -5.296875 "/></g></g></g><g fill="#39b54a" fill-opacity="1"><g transform="translate(324.9666, 217.366567)"><g><path d="M 26.78125 -23.78125 L 16.046875 1.453125 C 14.953125 4.191406 13.601562 6.117188 12 7.234375 C 10.394531 8.359375 8.457031 8.921875 6.1875 8.921875 C 4.945312 8.921875 3.722656 8.726562 2.515625 8.34375 C 1.304688 7.96875 0.320312 7.441406 -0.4375 6.765625 L 2.078125 1.859375 C 2.609375 2.328125 3.21875 2.691406 3.90625 2.953125 C 4.601562 3.222656 5.289062 3.359375 5.96875 3.359375 C 6.90625 3.359375 7.671875 3.128906 8.265625 2.671875 C 8.859375 2.210938 9.390625 1.453125 9.859375 0.390625 L 9.953125 0.171875 L -0.359375 -23.78125 L 6.765625 -23.78125 L 13.4375 -7.640625 L 20.15625 -23.78125 Z M 26.78125 -23.78125 "/></g></g></g></svg>